<!DOCTYPE svg PUBLIC "-//W3C//DTD SVG 1.1//EN" "http://www.w3.org/Graphics/SVG/1.1/DTD/svg11.dtd">
<!-- Uploaded to: SVG Repo, www.svgrepo.com, Transformed by: SVG Repo Mixer Tools -->
<svg width="800px" height="800px" viewBox="0 0 36 36" xmlns="http://www.w3.org/2000/svg" xmlns:xlink="http://www.w3.org/1999/xlink" aria-hidden="true" role="img" class="iconify iconify--twemoji" preserveAspectRatio="xMidYMid meet" fill="#000000" stroke="#000000">
<g id="SVGRepo_bgCarrier" stroke-width="0"/>
<g id="SVGRepo_tracerCarrier" stroke-linecap="round" stroke-linejoin="round"/>
<g id="SVGRepo_iconCarrier">
<path fill="#ff941a" d="M32 21v1h-2v-1c0-.446-.09-.867-.225-1.268a6 6 0 0 0-1.776-11.733a5.972 5.972 0 0 0-4.131 1.656A7 7 0 0 0 10 11a6.987 6.987 0 0 0 3.409 6H13a4 4 0 0 0-4 4H8l-6-4H1v14h1l6-4h1v2a4 4 0 0 0 4 4h13a4 4 0 0 0 4-4v-3h2v1h3v-6h-3z"/>
<path fill="#d81818" d="M22 11a5 5 0 1 1-10.001-.001A5 5 0 0 1 22 11z"/>
<circle fill="#edfe06" cx="17" cy="11" r="2"/>
<circle fill="#d81818" cx="27.999" cy="14" r="4"/>
<circle fill="#edfe06" cx="27.999" cy="14" r="2"/>
<path fill="#d90d0d" d="M17 20h10v10H17z"/>
<path fill="#ff941a" d="M19 22h6v6h-6z"/>
<circle fill="#d90d0d" cx="12.999" cy="28" r="2"/>
</g>
</svg>